<svg width="16" height="32" viewBox="0 0 16 32" fill="none" xmlns="http://www.w3.org/2000/svg">
<path d="M14.839 2.27597C15.0818 2.0245 15.2162 1.6877 15.2132 1.3381C15.2102 0.988509 15.0699 0.654093 14.8227 0.406882C14.5755 0.159671 14.2411 0.0194457 13.8915 0.0164078C13.5419 0.0133699 13.2051 0.147762 12.9536 0.39064L2.05762 11.2866C0.807816 12.5368 0.105713 14.2322 0.105713 16C0.105713 17.7677 0.807816 19.4631 2.05762 20.7133L12.9536 31.6093C13.2051 31.8522 13.5419 31.9866 13.8915 31.9835C14.2411 31.9805 14.5755 31.8403 14.8227 31.5931C15.0699 31.3459 15.2102 31.0114 15.2132 30.6618C15.2162 30.3122 15.0818 29.9754 14.839 29.724L3.94296 18.828C3.19307 18.0779 2.77181 17.0606 2.77181 16C2.77181 14.9393 3.19307 13.9221 3.94296 13.172L14.839 2.27597Z" fill="#C2C8CD"/>
</svg>
